<svg width="22" height="22" viewBox="0 0 22 22" fill="none" xmlns="http://www.w3.org/2000/svg">
<g id="icon_comment">
<rect x="0.5" y="0.5" width="21" height="21" stroke="white"/>
<path id="Vector" d="M3.28642 3.23651C5.08265 1.42584 7.4534 0.299539 9.98994 0.0517894C12.5265 -0.195961 15.0698 0.450363 17.1816 1.87933C19.2933 3.3083 20.841 5.43037 21.5579 7.87969C22.2748 10.329 22.116 12.9521 21.1088 15.2967C21.0039 15.5146 20.9694 15.7599 21.0103 15.9984L21.9737 20.6361C22.0108 20.8139 22.0032 20.9981 21.9516 21.1723C21.9 21.3464 21.806 21.505 21.6781 21.6338C21.5732 21.738 21.4483 21.82 21.311 21.8746C21.1736 21.9293 21.0267 21.9555 20.8789 21.9517H20.66L15.9745 21.0088C15.7363 20.9801 15.4949 21.0142 15.2739 21.1075C12.9327 22.1162 10.3136 22.2753 7.86793 21.5573C5.42227 20.8393 3.30337 19.2892 1.87653 17.1744C0.449693 15.0595 -0.195668 12.5123 0.0517126 9.97198C0.299093 7.43165 1.42371 5.05736 3.23168 3.25844L3.28642 3.23651ZM2.37778 12.4022C2.59182 13.7113 3.09954 14.9547 3.86274 16.0388C4.62594 17.123 5.62473 18.0196 6.78395 18.6613C7.94318 19.303 9.23263 19.673 10.5553 19.7435C11.8779 19.814 13.1993 19.5831 14.42 19.0682C14.8529 18.8838 15.3179 18.7869 15.7884 18.7832C15.9939 18.7846 16.1989 18.8029 16.4014 18.838L19.4886 19.4629L18.8646 16.3711C18.7403 15.7015 18.8204 15.01 19.0945 14.3867C19.6086 13.1642 19.8391 11.8408 19.7688 10.5162C19.6984 9.19161 19.3289 7.90023 18.6882 6.73928C18.0475 5.57832 17.1521 4.57804 16.0696 3.8137C14.9871 3.04936 13.7456 2.54087 12.4385 2.32651C11.0665 2.101 9.66055 2.20588 8.33704 2.63247C7.01352 3.05906 5.81044 3.79509 4.8273 4.7797C3.84417 5.76431 3.10923 6.96919 2.68328 8.29468C2.25733 9.62017 2.15261 11.0282 2.37778 12.4022Z" fill="black"/>
</g>
</svg>
