<svg width="22" height="22" viewBox="0 0 22 22" fill="none" xmlns="http://www.w3.org/2000/svg">
<g id="instagram">
<path id="instagram_2" d="M10.997 5.35594C7.87374 5.35594 5.35309 7.87664 5.35309 11C5.35309 14.1234 7.87374 16.6441 10.997 16.6441C14.1203 16.6441 16.641 14.1234 16.641 11C16.641 7.87664 14.1203 5.35594 10.997 5.35594ZM10.997 14.6682C8.97722 14.6682 7.32888 13.0199 7.32888 11C7.32888 8.98014 8.97722 7.33177 10.997 7.33177C13.0169 7.33177 14.6652 8.98014 14.6652 11C14.6652 13.0199 13.0169 14.6682 10.997 14.6682ZM16.8722 3.80939C16.1429 3.80939 15.554 4.39829 15.554 5.12753C15.554 5.85678 16.1429 6.44567 16.8722 6.44567C17.6014 6.44567 18.1903 5.85953 18.1903 5.12753C18.1905 4.95437 18.1565 4.78287 18.0904 4.62284C18.0242 4.46282 17.9271 4.31743 17.8047 4.19498C17.6822 4.07254 17.5369 3.97545 17.3768 3.90929C17.2168 3.84312 17.0453 3.80917 16.8722 3.80939ZM21.9988 11C21.9988 9.48097 22.0125 7.97571 21.9272 6.45943C21.8419 4.69824 21.4402 3.13519 20.1523 1.84732C18.8617 0.556694 17.3014 0.157674 15.5403 0.0723668C14.0213 -0.0129408 12.516 0.000818524 10.9998 0.000818524C9.4808 0.000818524 7.97556 -0.0129408 6.45931 0.0723668C4.69816 0.157674 3.13513 0.559446 1.84728 1.84732C0.556684 3.13794 0.157672 4.69824 0.0723655 6.45943C-0.0129406 7.97846 0.000818509 9.48373 0.000818509 11C0.000818509 12.5163 -0.0129406 14.0243 0.0723655 15.5406C0.157672 17.3018 0.559436 18.8648 1.84728 20.1527C3.13788 21.4433 4.69816 21.8423 6.45931 21.9276C7.97831 22.0129 9.48355 21.9992 10.9998 21.9992C12.5188 21.9992 14.024 22.0129 15.5403 21.9276C17.3014 21.8423 18.8645 21.4406 20.1523 20.1527C21.4429 18.8621 21.8419 17.3018 21.9272 15.5406C22.0153 14.0243 21.9988 12.519 21.9988 11ZM19.5772 17.4889C19.3763 17.9897 19.1341 18.364 18.7461 18.7492C18.3581 19.1372 17.9866 19.3794 17.4858 19.5803C16.0384 20.1554 12.6013 20.0261 10.997 20.0261C9.39274 20.0261 5.95298 20.1554 4.50553 19.583C4.0047 19.3822 3.63045 19.14 3.2452 18.752C2.8572 18.364 2.61504 17.9925 2.41415 17.4916C1.84178 16.0414 1.97111 12.6043 1.97111 11C1.97111 9.39567 1.84178 5.95584 2.41415 4.50836C2.61504 4.00753 2.8572 3.63327 3.2452 3.24801C3.63321 2.86275 4.0047 2.61784 4.50553 2.41695C5.95298 1.84456 9.39274 1.9739 10.997 1.9739C12.6013 1.9739 16.0411 1.84456 17.4886 2.41695C17.9894 2.61784 18.3636 2.86 18.7489 3.24801C19.1369 3.63602 19.3791 4.00753 19.5799 4.50836C20.1523 5.95584 20.023 9.39567 20.023 11C20.023 12.6043 20.1523 16.0414 19.5772 17.4889Z" fill="black"/>
</g>
</svg>
