<svg width="22" height="20" viewBox="0 0 22 20" fill="none" xmlns="http://www.w3.org/2000/svg">
<g id="like">
<rect x="1.45" y="1.45" width="19.1" height="17.1" stroke="white" stroke-width="0.9"/>
<path id="like_2" d="M20.2995 3.74906C20.5347 4.16039 20.7126 4.60334 20.8281 5.06505C20.9484 5.54252 21.006 6.03424 20.9995 6.52727C21.0038 7.4672 20.7621 8.39114 20.2995 9.20313C20.071 9.62718 19.781 10.0176 19.4424 10.3583L11 19L2.55756 10.3583C2.21874 10.0141 1.92576 9.62572 1.68617 9.20313C1.46433 8.79205 1.29167 8.35511 1.17191 7.90176C1.05763 7.45286 1.00049 6.9908 1.00049 6.52727C0.993998 6.03424 1.05164 5.54252 1.17191 5.06505C1.39958 4.12517 1.87954 3.2692 2.55756 2.5939C3.05375 2.08875 3.64068 1.68656 4.28605 1.40951C5.58576 0.863498 7.04328 0.863498 8.34299 1.40951C8.95329 1.67393 9.51401 2.04502 10 2.50617L10.0715 2.5939L11 3.54435L11.9285 2.5939L12 2.50617C12.486 2.04502 13.0467 1.67393 13.657 1.40951C14.9567 0.863498 16.4142 0.863498 17.714 1.40951C18.3593 1.68656 18.9463 2.08875 19.4424 2.5939C19.7851 2.93101 20.0742 3.32074 20.2995 3.74906Z" stroke="black" stroke-width="2" stroke-linejoin="round"/>
</g>
</svg>
